<svg width="190" height="190" viewBox="0 0 190 190" fill="none" xmlns="http://www.w3.org/2000/svg">
<g filter="url(#filter0_d_1606_44257)">
<circle cx="95" cy="90" r="75" fill="#00CE62"/>
</g>
<path fill-rule="evenodd" clip-rule="evenodd" d="M132.949 61.8852L132.953 61.8886C137.061 65.7264 139.344 70.838 139.325 76.3209L139.325 76.3242V76.3275C139.325 81.7773 137.06 86.8905 132.932 90.7468L90.6576 130.253C89.7203 131.129 88.1877 131.129 87.2502 130.253L57.0815 102.073C52.9538 98.2171 50.6885 93.1042 50.6885 87.6339C50.6885 82.1635 52.9538 77.0506 57.0815 73.195C61.2081 69.3404 66.6669 67.2356 72.4944 67.2356C78.0717 67.2356 83.322 69.1804 87.3919 72.7511L88.9826 74.1468L102.127 61.869C106.253 58.0144 111.712 55.9097 117.54 55.9097C123.365 55.9097 128.843 58.0325 132.949 61.8852ZM64.6006 94.8135L88.2354 116.416L122.244 85.4223L123.771 83.8989C127.93 80.0787 127.93 73.865 123.772 70.0446C119.63 66.2234 112.894 66.2239 108.754 70.0461L89.9656 87.5045L81.3507 79.7813C77.2095 75.9601 69.5795 76.7838 65.4391 80.6061C61.3011 84.426 60.4627 90.9936 64.6006 94.8135Z" fill="white"/>
<defs>
<filter id="filter0_d_1606_44257" x="0" y="0" width="190" height="190" filterUnits="userSpaceOnUse" color-interpolation-filters="sRGB">
<feFlood flood-opacity="0" result="BackgroundImageFix"/>
<feColorMatrix in="SourceAlpha" type="matrix" values="0 0 0 0 0 0 0 0 0 0 0 0 0 0 0 0 0 0 127 0" result="hardAlpha"/>
<feOffset dy="5"/>
<feGaussianBlur stdDeviation="10"/>
<feColorMatrix type="matrix" values="0 0 0 0 0.845833 0 0 0 0 0.845833 0 0 0 0 0.845833 0 0 0 0.5 0"/>
<feBlend mode="normal" in2="BackgroundImageFix" result="effect1_dropShadow_1606_44257"/>
<feBlend mode="normal" in="SourceGraphic" in2="effect1_dropShadow_1606_44257" result="shape"/>
</filter>
</defs>
</svg>
